<?xml version="1.0" encoding="UTF-8" standalone="no"?>
<!-- Created with Inkscape (http://www.inkscape.org/) -->

<svg
   version="1.1"
   id="svg640"
   width="384"
   height="288"
   viewBox="0 0 384 288"
   sodipodi:docname="chum-logistic-sgen.svg"
   inkscape:version="1.2.1 (9c6d41e410, 2022-07-14)"
   inkscape:export-filename="chum-logistic-sgen.png"
   inkscape:export-xdpi="300"
   inkscape:export-ydpi="300"
   xmlns:inkscape="http://www.inkscape.org/namespaces/inkscape"
   xmlns:sodipodi="http://sodipodi.sourceforge.net/DTD/sodipodi-0.dtd"
   xmlns="http://www.w3.org/2000/svg"
   xmlns:svg="http://www.w3.org/2000/svg">
  <defs
     id="defs644">
    <clipPath
       clipPathUnits="userSpaceOnUse"
       id="clipPath676">
      <path
         d="M 0,0 H 288 V 216 H 0 Z"
         id="path674" />
    </clipPath>
    <clipPath
       clipPathUnits="userSpaceOnUse"
       id="clipPath688">
      <path
         d="M 40.98,31.91 H 282.52 V 210.52 H 40.98 Z"
         id="path686" />
    </clipPath>
  </defs>
  <sodipodi:namedview
     id="namedview642"
     pagecolor="#ffffff"
     bordercolor="#000000"
     borderopacity="0.25"
     inkscape:showpageshadow="2"
     inkscape:pageopacity="0.0"
     inkscape:pagecheckerboard="0"
     inkscape:deskcolor="#d1d1d1"
     showgrid="false"
     inkscape:zoom="2.8854167"
     inkscape:cx="192.51986"
     inkscape:cy="144.17329"
     inkscape:window-width="1920"
     inkscape:window-height="1017"
     inkscape:window-x="1912"
     inkscape:window-y="-8"
     inkscape:window-maximized="1"
     inkscape:current-layer="g648">
    <inkscape:page
       x="0"
       y="0"
       id="page646"
       width="384"
       height="288"
       inkscape:export-filename="Page 1.png"
       inkscape:export-xdpi="300"
       inkscape:export-ydpi="300" />
  </sodipodi:namedview>
  <g
     id="g648"
     inkscape:groupmode="layer"
     inkscape:label="Page 1"
     transform="matrix(1.3333333,0,0,-1.3333333,0,288)">
    <g
       id="g650" />
    <g
       id="g652" />
    <g
       id="g654" />
    <g
       id="g656" />
    <g
       id="g658" />
    <g
       id="g660" />
    <g
       id="g662" />
    <g
       id="g664" />
    <g
       id="g666" />
    <g
       id="g668" />
    <g
       id="g670"
       transform="scale(1.0740072,1)">
      <g
         id="g672"
         clip-path="url(#clipPath676)">
        <path
           d="M 0,0 H 288 V 216 H 0 Z"
           style="fill:#ffffff;fill-opacity:1;fill-rule:nonzero;stroke:#ffffff;stroke-width:1.07;stroke-linecap:round;stroke-linejoin:round;stroke-miterlimit:10;stroke-dasharray:none;stroke-opacity:1"
           id="path678" />
      </g>
    </g>
    <text
       xml:space="preserve"
       transform="scale(1,-1)"
       style="font-variant:normal;font-weight:normal;font-size:11.0156px;font-family:Arial;-inkscape-font-specification:ArialMT;writing-mode:lr-tb;fill:#000000;fill-opacity:1;fill-rule:nonzero;stroke:none"
       id="text534"
       x="74.824631"
       y="-6.2924776"><tspan
         x="74.824631 82.171951 88.298302 94.424652 100.551 106.67735 112.8037 118.93007 124.43786 130.56421 133.62469 139.75105 145.87741 149.54568 155.67203 161.79839 167.92473 174.05109 177.11157 183.23793 189.36427 194.87207 197.93256 204.05891 210.18527 216.31161 218.75894 221.81943 227.94577 234.07213 237.7404"
         y="-6.2924776"
         sodipodi:role="line"
         id="tspan532">Abondance agrégée des géniteurs</tspan></text>
    <text
       xml:space="preserve"
       transform="matrix(0,1,1,0,0,0)"
       style="font-variant:normal;font-weight:normal;font-size:11.0156px;font-family:Arial;-inkscape-font-specification:ArialMT;writing-mode:lr-tb;fill:#000000;fill-opacity:1;fill-rule:nonzero;stroke:none"
       id="text528"
       x="63.526546"
       y="11.688265"><tspan
         x="63.526546 70.873871 74.542152 78.210434 81.27092 87.39727 93.523621 96.584106 102.71046 108.21826 111.27875 113.72606 119.85241 125.36021 128.4207 136.37581 144.33092 147.3914 153.82434 156.88483 164.23215 172.18727 175.24776 178.91603"
         y="11.688265"
         sodipodi:role="line"
         id="tspan526">Pr(toutes les UC &gt; PRI) </tspan></text>
    <g
       id="g680" />
    <g
       id="g682">
      <g
         id="g684"
         clip-path="url(#clipPath688)">
        <path
           d="M 40.98,31.91 H 282.52 V 210.52 H 40.98 Z"
           style="fill:#ffffff;fill-opacity:1;fill-rule:nonzero;stroke:none"
           id="path690" />
        <path
           d="m 51.96,115.9 2.22,-0.49 2.22,-0.47 2.22,-0.47 2.21,-0.46 2.22,-0.45 2.22,-0.44 2.22,-0.43 2.22,-0.42 2.21,-0.41 2.22,-0.4 2.22,-0.38 2.22,-0.37 2.22,-0.36 2.21,-0.33 2.22,-0.32 2.22,-0.3 2.22,-0.28 2.22,-0.25 2.21,-0.23 2.22,-0.2 2.22,-0.17 2.22,-0.13 2.22,-0.1 2.21,-0.06 2.22,-0.02 2.22,0.04 2.22,0.08 2.22,0.14 2.21,0.19 2.22,0.26 2.22,0.33 2.22,0.4 2.21,0.48 2.22,0.55 2.22,0.64 2.22,0.72 2.22,0.81 2.21,0.89 2.22,0.98 2.22,1.05 2.22,1.14 2.22,1.21 2.21,1.29 2.22,1.35 2.22,1.42 2.22,1.47 2.22,1.53 2.21,1.58 2.22,1.61 2.22,1.65 2.22,1.69 2.22,1.71 2.21,1.73 2.22,1.74 2.22,1.76 2.22,1.76 2.22,1.77 2.21,1.76 2.22,1.76 2.22,1.75 2.22,1.74 2.22,1.72 2.21,1.71 2.22,1.68 2.22,1.66 2.22,1.63 2.22,1.61 2.21,1.57 2.22,1.55 2.22,1.51 2.22,1.47 2.22,1.45 2.21,1.4 2.22,1.37 2.22,1.33 2.22,1.3 2.22,1.25 2.21,1.22 2.22,1.18 2.22,1.14 2.22,1.11 2.22,1.07 2.21,1.03 2.22,0.99 2.22,0.96 2.22,0.92 2.22,0.88 2.21,0.86 2.22,0.82 2.22,0.78 2.22,0.76 2.22,0.72 2.21,0.7 2.22,0.66 2.22,0.64 2.22,0.61 2.22,0.59 2.21,0.55 2.22,0.54 V 62.27 l -2.22,0.27 -2.21,0.27 -2.22,0.27 -2.22,0.28 -2.22,0.28 -2.22,0.28 -2.21,0.28 -2.22,0.29 -2.22,0.28 -2.22,0.29 -2.22,0.29 -2.21,0.29 -2.22,0.29 -2.22,0.29 -2.22,0.29 -2.22,0.3 -2.21,0.29 -2.22,0.3 -2.22,0.3 -2.22,0.29 -2.22,0.3 -2.21,0.3 -2.22,0.29 -2.22,0.3 -2.22,0.3 -2.22,0.29 -2.21,0.29 -2.22,0.3 -2.22,0.29 -2.22,0.28 -2.22,0.29 -2.21,0.28 -2.22,0.28 -2.22,0.27 -2.22,0.27 -2.22,0.26 -2.21,0.25 -2.22,0.25 -2.22,0.24 -2.22,0.23 -2.22,0.22 -2.21,0.21 -2.22,0.2 -2.22,0.18 -2.22,0.17 -2.22,0.15 -2.21,0.12 -2.22,0.11 -2.22,0.09 -2.22,0.05 -2.22,0.03 h -2.21 l -2.22,-0.03 -2.22,-0.08 -2.22,-0.11 -2.22,-0.15 -2.21,-0.2 -2.22,-0.24 -2.22,-0.3 -2.22,-0.34 -2.22,-0.39 -2.21,-0.44 -2.22,-0.49 -2.22,-0.54 -2.22,-0.58 -2.22,-0.63 -2.21,-0.66 -2.22,-0.7 -2.22,-0.73 -2.22,-0.75 -2.21,-0.77 -2.22,-0.79 -2.22,-0.8 -2.22,-0.8 -2.22,-0.81 -2.21,-0.81 -2.22,-0.8 -2.22,-0.8 L 96.32,60.55 94.1,59.77 91.89,59.01 89.67,58.26 87.45,57.53 85.23,56.82 83.01,56.13 80.8,55.45 78.58,54.8 76.36,54.16 74.14,53.55 71.92,52.95 69.71,52.38 67.49,51.83 65.27,51.3 63.05,50.78 60.83,50.29 58.62,49.82 56.4,49.36 54.18,48.93 51.96,48.51 Z"
           style="fill:#d9d9d9;fill-opacity:1;fill-rule:nonzero;stroke:none"
           id="path692" />
        <path
           d="m 51.96,69.29 2.22,0.47 2.22,0.47 2.22,0.49 2.21,0.48 2.22,0.5 2.22,0.5 2.22,0.5 2.22,0.51 2.21,0.52 2.22,0.53 2.22,0.52 2.22,0.54 2.22,0.54 2.21,0.55 2.22,0.55 2.22,0.56 2.22,0.57 2.22,0.57 2.21,0.57 2.22,0.59 2.22,0.58 2.22,0.6 2.22,0.6 2.21,0.6 2.22,0.61 2.22,0.62 2.22,0.62 2.22,0.63 2.21,0.64 2.22,0.63 2.22,0.65 2.22,0.65 2.21,0.65 2.22,0.66 2.22,0.67 2.22,0.67 2.22,0.68 2.21,0.68 2.22,0.68 2.22,0.69 2.22,0.7 2.22,0.7 2.21,0.7 2.22,0.71 2.22,0.72 2.22,0.72 2.22,0.72 2.21,0.72 2.22,0.73 2.22,0.74 2.22,0.74 2.22,0.74 2.21,0.74 2.22,0.75 2.22,0.75 2.22,0.76 2.22,0.76 2.21,0.76 2.22,0.76 2.22,0.77 2.22,0.77 2.22,0.77 2.21,0.77 2.22,0.78 2.22,0.78 2.22,0.78 2.22,0.78 2.21,0.78 2.22,0.78 2.22,0.79 2.22,0.79 2.22,0.79 2.21,0.79 2.22,0.78 2.22,0.8 2.22,0.79 2.22,0.79 2.21,0.79 2.22,0.79 2.22,0.79 2.22,0.79 2.22,0.79 2.21,0.79 2.22,0.79 2.22,0.79 2.22,0.78 2.22,0.79 2.21,0.78 2.22,0.78 2.22,0.78 2.22,0.78 2.22,0.78 2.21,0.78 2.22,0.77 2.22,0.77 2.22,0.77 2.22,0.76 2.21,0.76 2.22,0.76"
           style="fill:none;stroke:#ff0000;stroke-width:2.13;stroke-linecap:butt;stroke-linejoin:round;stroke-miterlimit:10;stroke-dasharray:none;stroke-opacity:1"
           id="path694" />
        <path
           d="m 51.96,115.9 2.22,-0.49 2.22,-0.47 2.22,-0.47 2.21,-0.46 2.22,-0.45 2.22,-0.44 2.22,-0.43 2.22,-0.42 2.21,-0.41 2.22,-0.4 2.22,-0.38 2.22,-0.37 2.22,-0.36 2.21,-0.33 2.22,-0.32 2.22,-0.3 2.22,-0.28 2.22,-0.25 2.21,-0.23 2.22,-0.2 2.22,-0.17 2.22,-0.13 2.22,-0.1 2.21,-0.06 2.22,-0.02 2.22,0.04 2.22,0.08 2.22,0.14 2.21,0.19 2.22,0.26 2.22,0.33 2.22,0.4 2.21,0.48 2.22,0.55 2.22,0.64 2.22,0.72 2.22,0.81 2.21,0.89 2.22,0.98 2.22,1.05 2.22,1.14 2.22,1.21 2.21,1.29 2.22,1.35 2.22,1.42 2.22,1.47 2.22,1.53 2.21,1.58 2.22,1.61 2.22,1.65 2.22,1.69 2.22,1.71 2.21,1.73 2.22,1.74 2.22,1.76 2.22,1.76 2.22,1.77 2.21,1.76 2.22,1.76 2.22,1.75 2.22,1.74 2.22,1.72 2.21,1.71 2.22,1.68 2.22,1.66 2.22,1.63 2.22,1.61 2.21,1.57 2.22,1.55 2.22,1.51 2.22,1.47 2.22,1.45 2.21,1.4 2.22,1.37 2.22,1.33 2.22,1.3 2.22,1.25 2.21,1.22 2.22,1.18 2.22,1.14 2.22,1.11 2.22,1.07 2.21,1.03 2.22,0.99 2.22,0.96 2.22,0.92 2.22,0.88 2.21,0.86 2.22,0.82 2.22,0.78 2.22,0.76 2.22,0.72 2.21,0.7 2.22,0.66 2.22,0.64 2.22,0.61 2.22,0.59 2.21,0.55 2.22,0.54"
           style="fill:none;stroke:#d9d9d9;stroke-width:1.07;stroke-linecap:butt;stroke-linejoin:round;stroke-miterlimit:10;stroke-dasharray:none;stroke-opacity:1"
           id="path696" />
        <path
           d="m 51.96,48.51 2.22,0.42 2.22,0.43 2.22,0.46 2.21,0.47 2.22,0.49 2.22,0.52 2.22,0.53 2.22,0.55 2.21,0.57 2.22,0.6 2.22,0.61 2.22,0.64 2.22,0.65 2.21,0.68 2.22,0.69 2.22,0.71 2.22,0.73 2.22,0.75 2.21,0.76 2.22,0.78 2.22,0.79 2.22,0.8 2.22,0.8 2.21,0.81 2.22,0.81 2.22,0.8 2.22,0.8 2.22,0.79 2.21,0.77 2.22,0.75 2.22,0.73 2.22,0.7 2.21,0.66 2.22,0.63 2.22,0.58 2.22,0.54 2.22,0.49 2.21,0.44 2.22,0.39 2.22,0.34 2.22,0.3 2.22,0.24 2.21,0.2 2.22,0.15 2.22,0.11 2.22,0.08 2.22,0.03 h 2.21 l 2.22,-0.03 2.22,-0.05 2.22,-0.09 2.22,-0.11 2.21,-0.12 2.22,-0.15 2.22,-0.17 2.22,-0.18 2.22,-0.2 2.21,-0.21 2.22,-0.22 2.22,-0.23 2.22,-0.24 2.22,-0.25 2.21,-0.25 2.22,-0.26 2.22,-0.27 2.22,-0.27 2.22,-0.28 2.21,-0.28 2.22,-0.29 2.22,-0.28 2.22,-0.29 2.22,-0.3 2.21,-0.29 2.22,-0.29 2.22,-0.3 2.22,-0.3 2.22,-0.29 2.21,-0.3 2.22,-0.3 2.22,-0.29 2.22,-0.3 2.22,-0.3 2.21,-0.29 2.22,-0.3 2.22,-0.29 2.22,-0.29 2.22,-0.29 2.21,-0.29 2.22,-0.29 2.22,-0.29 2.22,-0.28 2.22,-0.29 2.21,-0.28 2.22,-0.28 2.22,-0.28 2.22,-0.28 2.22,-0.27 2.21,-0.27 2.22,-0.27"
           style="fill:none;stroke:#d9d9d9;stroke-width:1.07;stroke-linecap:butt;stroke-linejoin:round;stroke-miterlimit:10;stroke-dasharray:none;stroke-opacity:1"
           id="path698" />
        <path
           d="m 136.47,202.4 c 0,1.08 0.88,1.96 1.96,1.96 1.07,0 1.95,-0.88 1.95,-1.96 0,-1.07 -0.88,-1.95 -1.95,-1.95 -1.08,0 -1.96,0.88 -1.96,1.95"
           style="fill:#000000;fill-opacity:1;fill-rule:nonzero;stroke:#000000;stroke-width:0.71;stroke-linecap:round;stroke-linejoin:round;stroke-miterlimit:10;stroke-dasharray:none;stroke-opacity:1"
           id="path700" />
        <path
           d="m 118.05,202.4 c 0,1.08 0.88,1.96 1.95,1.96 1.08,0 1.96,-0.88 1.96,-1.96 0,-1.07 -0.88,-1.95 -1.96,-1.95 -1.07,0 -1.95,0.88 -1.95,1.95"
           style="fill:#000000;fill-opacity:1;fill-rule:nonzero;stroke:#000000;stroke-width:0.71;stroke-linecap:round;stroke-linejoin:round;stroke-miterlimit:10;stroke-dasharray:none;stroke-opacity:1"
           id="path702" />
        <path
           d="m 84.28,40.03 c 0,1.07 0.88,1.95 1.96,1.95 1.07,0 1.95,-0.88 1.95,-1.95 0,-1.08 -0.88,-1.96 -1.95,-1.96 -1.08,0 -1.96,0.88 -1.96,1.96"
           style="fill:#000000;fill-opacity:1;fill-rule:nonzero;stroke:#000000;stroke-width:0.71;stroke-linecap:round;stroke-linejoin:round;stroke-miterlimit:10;stroke-dasharray:none;stroke-opacity:1"
           id="path704" />
        <path
           d="m 85.43,40.03 c 0,1.07 0.88,1.95 1.96,1.95 1.07,0 1.95,-0.88 1.95,-1.95 0,-1.08 -0.88,-1.96 -1.95,-1.96 -1.08,0 -1.96,0.88 -1.96,1.96"
           style="fill:#000000;fill-opacity:1;fill-rule:nonzero;stroke:#000000;stroke-width:0.71;stroke-linecap:round;stroke-linejoin:round;stroke-miterlimit:10;stroke-dasharray:none;stroke-opacity:1"
           id="path706" />
        <path
           d="m 87.6,40.03 c 0,1.07 0.88,1.95 1.96,1.95 1.07,0 1.95,-0.88 1.95,-1.95 0,-1.08 -0.88,-1.96 -1.95,-1.96 -1.08,0 -1.96,0.88 -1.96,1.96"
           style="fill:#000000;fill-opacity:1;fill-rule:nonzero;stroke:#000000;stroke-width:0.71;stroke-linecap:round;stroke-linejoin:round;stroke-miterlimit:10;stroke-dasharray:none;stroke-opacity:1"
           id="path708" />
        <path
           d="m 82.1,40.03 c 0,1.07 0.88,1.95 1.95,1.95 1.08,0 1.96,-0.88 1.96,-1.95 0,-1.08 -0.88,-1.96 -1.96,-1.96 -1.07,0 -1.95,0.88 -1.95,1.96"
           style="fill:#000000;fill-opacity:1;fill-rule:nonzero;stroke:#000000;stroke-width:0.71;stroke-linecap:round;stroke-linejoin:round;stroke-miterlimit:10;stroke-dasharray:none;stroke-opacity:1"
           id="path710" />
        <path
           d="m 92.61,40.03 c 0,1.07 0.88,1.95 1.95,1.95 1.08,0 1.96,-0.88 1.96,-1.95 0,-1.08 -0.88,-1.96 -1.96,-1.96 -1.07,0 -1.95,0.88 -1.95,1.96"
           style="fill:#000000;fill-opacity:1;fill-rule:nonzero;stroke:#000000;stroke-width:0.71;stroke-linecap:round;stroke-linejoin:round;stroke-miterlimit:10;stroke-dasharray:none;stroke-opacity:1"
           id="path712" />
        <path
           d="m 70.43,40.03 c 0,1.07 0.88,1.95 1.96,1.95 1.07,0 1.95,-0.88 1.95,-1.95 0,-1.08 -0.88,-1.96 -1.95,-1.96 -1.08,0 -1.96,0.88 -1.96,1.96"
           style="fill:#000000;fill-opacity:1;fill-rule:nonzero;stroke:#000000;stroke-width:0.71;stroke-linecap:round;stroke-linejoin:round;stroke-miterlimit:10;stroke-dasharray:none;stroke-opacity:1"
           id="path714" />
        <path
           d="m 99.77,40.03 c 0,1.07 0.88,1.95 1.96,1.95 1.07,0 1.95,-0.88 1.95,-1.95 0,-1.08 -0.88,-1.96 -1.95,-1.96 -1.08,0 -1.96,0.88 -1.96,1.96"
           style="fill:#000000;fill-opacity:1;fill-rule:nonzero;stroke:#000000;stroke-width:0.71;stroke-linecap:round;stroke-linejoin:round;stroke-miterlimit:10;stroke-dasharray:none;stroke-opacity:1"
           id="path716" />
        <path
           d="m 90.99,40.03 c 0,1.07 0.88,1.95 1.95,1.95 1.08,0 1.96,-0.88 1.96,-1.95 0,-1.08 -0.88,-1.96 -1.96,-1.96 -1.07,0 -1.95,0.88 -1.95,1.96"
           style="fill:#000000;fill-opacity:1;fill-rule:nonzero;stroke:#000000;stroke-width:0.71;stroke-linecap:round;stroke-linejoin:round;stroke-miterlimit:10;stroke-dasharray:none;stroke-opacity:1"
           id="path718" />
        <path
           d="m 136,202.4 c 0,1.08 0.88,1.96 1.95,1.96 1.08,0 1.96,-0.88 1.96,-1.96 0,-1.07 -0.88,-1.95 -1.96,-1.95 -1.07,0 -1.95,0.88 -1.95,1.95"
           style="fill:#000000;fill-opacity:1;fill-rule:nonzero;stroke:#000000;stroke-width:0.71;stroke-linecap:round;stroke-linejoin:round;stroke-miterlimit:10;stroke-dasharray:none;stroke-opacity:1"
           id="path720" />
        <path
           d="m 101.16,40.03 c 0,1.07 0.88,1.95 1.96,1.95 1.07,0 1.95,-0.88 1.95,-1.95 0,-1.08 -0.88,-1.96 -1.95,-1.96 -1.08,0 -1.96,0.88 -1.96,1.96"
           style="fill:#000000;fill-opacity:1;fill-rule:nonzero;stroke:#000000;stroke-width:0.71;stroke-linecap:round;stroke-linejoin:round;stroke-miterlimit:10;stroke-dasharray:none;stroke-opacity:1"
           id="path722" />
        <path
           d="m 117.9,202.4 c 0,1.08 0.88,1.96 1.95,1.96 1.08,0 1.96,-0.88 1.96,-1.96 0,-1.07 -0.88,-1.95 -1.96,-1.95 -1.07,0 -1.95,0.88 -1.95,1.95"
           style="fill:#000000;fill-opacity:1;fill-rule:nonzero;stroke:#000000;stroke-width:0.71;stroke-linecap:round;stroke-linejoin:round;stroke-miterlimit:10;stroke-dasharray:none;stroke-opacity:1"
           id="path724" />
        <path
           d="m 77.21,40.03 c 0,1.07 0.88,1.95 1.96,1.95 1.07,0 1.95,-0.88 1.95,-1.95 0,-1.08 -0.88,-1.96 -1.95,-1.96 -1.08,0 -1.96,0.88 -1.96,1.96"
           style="fill:#000000;fill-opacity:1;fill-rule:nonzero;stroke:#000000;stroke-width:0.71;stroke-linecap:round;stroke-linejoin:round;stroke-miterlimit:10;stroke-dasharray:none;stroke-opacity:1"
           id="path726" />
        <path
           d="m 168.51,202.4 c 0,1.08 0.88,1.96 1.96,1.96 1.07,0 1.95,-0.88 1.95,-1.96 0,-1.07 -0.88,-1.95 -1.95,-1.95 -1.08,0 -1.96,0.88 -1.96,1.95"
           style="fill:#000000;fill-opacity:1;fill-rule:nonzero;stroke:#000000;stroke-width:0.71;stroke-linecap:round;stroke-linejoin:round;stroke-miterlimit:10;stroke-dasharray:none;stroke-opacity:1"
           id="path728" />
        <path
           d="m 152.35,202.4 c 0,1.08 0.88,1.96 1.96,1.96 1.07,0 1.95,-0.88 1.95,-1.96 0,-1.07 -0.88,-1.95 -1.95,-1.95 -1.08,0 -1.96,0.88 -1.96,1.95"
           style="fill:#000000;fill-opacity:1;fill-rule:nonzero;stroke:#000000;stroke-width:0.71;stroke-linecap:round;stroke-linejoin:round;stroke-miterlimit:10;stroke-dasharray:none;stroke-opacity:1"
           id="path730" />
        <path
           d="m 116.71,40.03 c 0,1.07 0.88,1.95 1.96,1.95 1.07,0 1.95,-0.88 1.95,-1.95 0,-1.08 -0.88,-1.96 -1.95,-1.96 -1.08,0 -1.96,0.88 -1.96,1.96"
           style="fill:#000000;fill-opacity:1;fill-rule:nonzero;stroke:#000000;stroke-width:0.71;stroke-linecap:round;stroke-linejoin:round;stroke-miterlimit:10;stroke-dasharray:none;stroke-opacity:1"
           id="path732" />
        <path
           d="m 84.88,40.03 c 0,1.07 0.88,1.95 1.96,1.95 1.07,0 1.95,-0.88 1.95,-1.95 0,-1.08 -0.88,-1.96 -1.95,-1.96 -1.08,0 -1.96,0.88 -1.96,1.96"
           style="fill:#000000;fill-opacity:1;fill-rule:nonzero;stroke:#000000;stroke-width:0.71;stroke-linecap:round;stroke-linejoin:round;stroke-miterlimit:10;stroke-dasharray:none;stroke-opacity:1"
           id="path734" />
        <path
           d="m 91.6,40.03 c 0,1.07 0.88,1.95 1.95,1.95 1.08,0 1.96,-0.88 1.96,-1.95 0,-1.08 -0.88,-1.96 -1.96,-1.96 -1.07,0 -1.95,0.88 -1.95,1.96"
           style="fill:#000000;fill-opacity:1;fill-rule:nonzero;stroke:#000000;stroke-width:0.71;stroke-linecap:round;stroke-linejoin:round;stroke-miterlimit:10;stroke-dasharray:none;stroke-opacity:1"
           id="path736" />
        <path
           d="m 122.26,202.4 c 0,1.08 0.88,1.96 1.95,1.96 1.08,0 1.96,-0.88 1.96,-1.96 0,-1.07 -0.88,-1.95 -1.96,-1.95 -1.07,0 -1.95,0.88 -1.95,1.95"
           style="fill:#000000;fill-opacity:1;fill-rule:nonzero;stroke:#000000;stroke-width:0.71;stroke-linecap:round;stroke-linejoin:round;stroke-miterlimit:10;stroke-dasharray:none;stroke-opacity:1"
           id="path738" />
        <path
           d="m 125.87,202.4 c 0,1.08 0.88,1.96 1.95,1.96 1.08,0 1.96,-0.88 1.96,-1.96 0,-1.07 -0.88,-1.95 -1.96,-1.95 -1.07,0 -1.95,0.88 -1.95,1.95"
           style="fill:#000000;fill-opacity:1;fill-rule:nonzero;stroke:#000000;stroke-width:0.71;stroke-linecap:round;stroke-linejoin:round;stroke-miterlimit:10;stroke-dasharray:none;stroke-opacity:1"
           id="path740" />
        <path
           d="m 80.1,40.03 c 0,1.07 0.88,1.95 1.95,1.95 1.08,0 1.96,-0.88 1.96,-1.95 0,-1.08 -0.88,-1.96 -1.96,-1.96 -1.07,0 -1.95,0.88 -1.95,1.96"
           style="fill:#000000;fill-opacity:1;fill-rule:nonzero;stroke:#000000;stroke-width:0.71;stroke-linecap:round;stroke-linejoin:round;stroke-miterlimit:10;stroke-dasharray:none;stroke-opacity:1"
           id="path742" />
        <path
           d="m 135.12,202.4 c 0,1.08 0.88,1.96 1.95,1.96 1.08,0 1.96,-0.88 1.96,-1.96 0,-1.07 -0.88,-1.95 -1.96,-1.95 -1.07,0 -1.95,0.88 -1.95,1.95"
           style="fill:#000000;fill-opacity:1;fill-rule:nonzero;stroke:#000000;stroke-width:0.71;stroke-linecap:round;stroke-linejoin:round;stroke-miterlimit:10;stroke-dasharray:none;stroke-opacity:1"
           id="path744" />
        <path
           d="m 117.33,40.03 c 0,1.07 0.88,1.95 1.96,1.95 1.07,0 1.95,-0.88 1.95,-1.95 0,-1.08 -0.88,-1.96 -1.95,-1.96 -1.08,0 -1.96,0.88 -1.96,1.96"
           style="fill:#000000;fill-opacity:1;fill-rule:nonzero;stroke:#000000;stroke-width:0.71;stroke-linecap:round;stroke-linejoin:round;stroke-miterlimit:10;stroke-dasharray:none;stroke-opacity:1"
           id="path746" />
        <path
           d="m 126.87,202.4 c 0,1.08 0.88,1.96 1.96,1.96 1.07,0 1.95,-0.88 1.95,-1.96 0,-1.07 -0.88,-1.95 -1.95,-1.95 -1.08,0 -1.96,0.88 -1.96,1.95"
           style="fill:#000000;fill-opacity:1;fill-rule:nonzero;stroke:#000000;stroke-width:0.71;stroke-linecap:round;stroke-linejoin:round;stroke-miterlimit:10;stroke-dasharray:none;stroke-opacity:1"
           id="path748" />
        <path
           d="m 107.08,40.03 c 0,1.07 0.88,1.95 1.96,1.95 1.07,0 1.95,-0.88 1.95,-1.95 0,-1.08 -0.88,-1.96 -1.95,-1.96 -1.08,0 -1.96,0.88 -1.96,1.96"
           style="fill:#000000;fill-opacity:1;fill-rule:nonzero;stroke:#000000;stroke-width:0.71;stroke-linecap:round;stroke-linejoin:round;stroke-miterlimit:10;stroke-dasharray:none;stroke-opacity:1"
           id="path750" />
        <path
           d="m 129.97,202.4 c 0,1.08 0.88,1.96 1.96,1.96 1.07,0 1.95,-0.88 1.95,-1.96 0,-1.07 -0.88,-1.95 -1.95,-1.95 -1.08,0 -1.96,0.88 -1.96,1.95"
           style="fill:#000000;fill-opacity:1;fill-rule:nonzero;stroke:#000000;stroke-width:0.71;stroke-linecap:round;stroke-linejoin:round;stroke-miterlimit:10;stroke-dasharray:none;stroke-opacity:1"
           id="path752" />
        <path
           d="m 183.97,202.4 c 0,1.08 0.88,1.96 1.96,1.96 1.07,0 1.95,-0.88 1.95,-1.96 0,-1.07 -0.88,-1.95 -1.95,-1.95 -1.08,0 -1.96,0.88 -1.96,1.95"
           style="fill:#000000;fill-opacity:1;fill-rule:nonzero;stroke:#000000;stroke-width:0.71;stroke-linecap:round;stroke-linejoin:round;stroke-miterlimit:10;stroke-dasharray:none;stroke-opacity:1"
           id="path754" />
        <path
           d="m 132.62,40.03 c 0,1.07 0.88,1.95 1.95,1.95 1.08,0 1.96,-0.88 1.96,-1.95 0,-1.08 -0.88,-1.96 -1.96,-1.96 -1.07,0 -1.95,0.88 -1.95,1.96"
           style="fill:#000000;fill-opacity:1;fill-rule:nonzero;stroke:#000000;stroke-width:0.71;stroke-linecap:round;stroke-linejoin:round;stroke-miterlimit:10;stroke-dasharray:none;stroke-opacity:1"
           id="path756" />
        <path
           d="m 121.41,202.4 c 0,1.08 0.88,1.96 1.95,1.96 1.08,0 1.96,-0.88 1.96,-1.96 0,-1.07 -0.88,-1.95 -1.96,-1.95 -1.07,0 -1.95,0.88 -1.95,1.95"
           style="fill:#000000;fill-opacity:1;fill-rule:nonzero;stroke:#000000;stroke-width:0.71;stroke-linecap:round;stroke-linejoin:round;stroke-miterlimit:10;stroke-dasharray:none;stroke-opacity:1"
           id="path758" />
        <path
           d="m 141.73,202.4 c 0,1.08 0.88,1.96 1.95,1.96 1.08,0 1.96,-0.88 1.96,-1.96 0,-1.07 -0.88,-1.95 -1.96,-1.95 -1.07,0 -1.95,0.88 -1.95,1.95"
           style="fill:#000000;fill-opacity:1;fill-rule:nonzero;stroke:#000000;stroke-width:0.71;stroke-linecap:round;stroke-linejoin:round;stroke-miterlimit:10;stroke-dasharray:none;stroke-opacity:1"
           id="path760" />
        <path
           d="m 85.46,40.03 c 0,1.07 0.88,1.95 1.96,1.95 1.07,0 1.95,-0.88 1.95,-1.95 0,-1.08 -0.88,-1.96 -1.95,-1.96 -1.08,0 -1.96,0.88 -1.96,1.96"
           style="fill:#000000;fill-opacity:1;fill-rule:nonzero;stroke:#000000;stroke-width:0.71;stroke-linecap:round;stroke-linejoin:round;stroke-miterlimit:10;stroke-dasharray:none;stroke-opacity:1"
           id="path762" />
        <path
           d="m 139.88,40.03 c 0,1.07 0.88,1.95 1.95,1.95 1.08,0 1.96,-0.88 1.96,-1.95 0,-1.08 -0.88,-1.96 -1.96,-1.96 -1.07,0 -1.95,0.88 -1.95,1.96"
           style="fill:#000000;fill-opacity:1;fill-rule:nonzero;stroke:#000000;stroke-width:0.71;stroke-linecap:round;stroke-linejoin:round;stroke-miterlimit:10;stroke-dasharray:none;stroke-opacity:1"
           id="path764" />
        <path
           d="m 126.45,40.03 c 0,1.07 0.88,1.95 1.96,1.95 1.07,0 1.95,-0.88 1.95,-1.95 0,-1.08 -0.88,-1.96 -1.95,-1.96 -1.08,0 -1.96,0.88 -1.96,1.96"
           style="fill:#000000;fill-opacity:1;fill-rule:nonzero;stroke:#000000;stroke-width:0.71;stroke-linecap:round;stroke-linejoin:round;stroke-miterlimit:10;stroke-dasharray:none;stroke-opacity:1"
           id="path766" />
        <path
           d="m 148.45,40.03 c 0,1.07 0.88,1.95 1.95,1.95 1.08,0 1.96,-0.88 1.96,-1.95 0,-1.08 -0.88,-1.96 -1.96,-1.96 -1.07,0 -1.95,0.88 -1.95,1.96"
           style="fill:#000000;fill-opacity:1;fill-rule:nonzero;stroke:#000000;stroke-width:0.71;stroke-linecap:round;stroke-linejoin:round;stroke-miterlimit:10;stroke-dasharray:none;stroke-opacity:1"
           id="path768" />
        <path
           d="m 141.82,40.03 c 0,1.07 0.88,1.95 1.96,1.95 1.07,0 1.95,-0.88 1.95,-1.95 0,-1.08 -0.88,-1.96 -1.95,-1.96 -1.08,0 -1.96,0.88 -1.96,1.96"
           style="fill:#000000;fill-opacity:1;fill-rule:nonzero;stroke:#000000;stroke-width:0.71;stroke-linecap:round;stroke-linejoin:round;stroke-miterlimit:10;stroke-dasharray:none;stroke-opacity:1"
           id="path770" />
        <path
           d="m 146.66,202.4 c 0,1.08 0.88,1.96 1.95,1.96 1.08,0 1.96,-0.88 1.96,-1.96 0,-1.07 -0.88,-1.95 -1.96,-1.95 -1.07,0 -1.95,0.88 -1.95,1.95"
           style="fill:#000000;fill-opacity:1;fill-rule:nonzero;stroke:#000000;stroke-width:0.71;stroke-linecap:round;stroke-linejoin:round;stroke-miterlimit:10;stroke-dasharray:none;stroke-opacity:1"
           id="path772" />
        <path
           d="m 98.79,40.03 c 0,1.07 0.88,1.95 1.96,1.95 1.07,0 1.95,-0.88 1.95,-1.95 0,-1.08 -0.88,-1.96 -1.95,-1.96 -1.08,0 -1.96,0.88 -1.96,1.96"
           style="fill:#000000;fill-opacity:1;fill-rule:nonzero;stroke:#000000;stroke-width:0.71;stroke-linecap:round;stroke-linejoin:round;stroke-miterlimit:10;stroke-dasharray:none;stroke-opacity:1"
           id="path774" />
        <path
           d="m 103.33,40.03 c 0,1.07 0.88,1.95 1.96,1.95 1.07,0 1.95,-0.88 1.95,-1.95 0,-1.08 -0.88,-1.96 -1.95,-1.96 -1.08,0 -1.96,0.88 -1.96,1.96"
           style="fill:#000000;fill-opacity:1;fill-rule:nonzero;stroke:#000000;stroke-width:0.71;stroke-linecap:round;stroke-linejoin:round;stroke-miterlimit:10;stroke-dasharray:none;stroke-opacity:1"
           id="path776" />
        <path
           d="m 123.6,40.03 c 0,1.07 0.88,1.95 1.95,1.95 1.08,0 1.96,-0.88 1.96,-1.95 0,-1.08 -0.88,-1.96 -1.96,-1.96 -1.07,0 -1.95,0.88 -1.95,1.96"
           style="fill:#000000;fill-opacity:1;fill-rule:nonzero;stroke:#000000;stroke-width:0.71;stroke-linecap:round;stroke-linejoin:round;stroke-miterlimit:10;stroke-dasharray:none;stroke-opacity:1"
           id="path778" />
        <path
           d="m 145.51,202.4 c 0,1.08 0.88,1.96 1.96,1.96 1.07,0 1.95,-0.88 1.95,-1.96 0,-1.07 -0.88,-1.95 -1.95,-1.95 -1.08,0 -1.96,0.88 -1.96,1.95"
           style="fill:#000000;fill-opacity:1;fill-rule:nonzero;stroke:#000000;stroke-width:0.71;stroke-linecap:round;stroke-linejoin:round;stroke-miterlimit:10;stroke-dasharray:none;stroke-opacity:1"
           id="path780" />
        <path
           d="m 90.22,40.03 c 0,1.07 0.88,1.95 1.96,1.95 1.07,0 1.95,-0.88 1.95,-1.95 0,-1.08 -0.88,-1.96 -1.95,-1.96 -1.08,0 -1.96,0.88 -1.96,1.96"
           style="fill:#000000;fill-opacity:1;fill-rule:nonzero;stroke:#000000;stroke-width:0.71;stroke-linecap:round;stroke-linejoin:round;stroke-miterlimit:10;stroke-dasharray:none;stroke-opacity:1"
           id="path782" />
        <path
           d="m 102.8,40.03 c 0,1.07 0.88,1.95 1.96,1.95 1.07,0 1.95,-0.88 1.95,-1.95 0,-1.08 -0.88,-1.96 -1.95,-1.96 -1.08,0 -1.96,0.88 -1.96,1.96"
           style="fill:#000000;fill-opacity:1;fill-rule:nonzero;stroke:#000000;stroke-width:0.71;stroke-linecap:round;stroke-linejoin:round;stroke-miterlimit:10;stroke-dasharray:none;stroke-opacity:1"
           id="path784" />
        <path
           d="m 188.52,40.03 c 0,1.07 0.88,1.95 1.96,1.95 1.07,0 1.95,-0.88 1.95,-1.95 0,-1.08 -0.88,-1.96 -1.95,-1.96 -1.08,0 -1.96,0.88 -1.96,1.96"
           style="fill:#000000;fill-opacity:1;fill-rule:nonzero;stroke:#000000;stroke-width:0.71;stroke-linecap:round;stroke-linejoin:round;stroke-miterlimit:10;stroke-dasharray:none;stroke-opacity:1"
           id="path786" />
        <path
           d="m 196.59,40.03 c 0,1.07 0.88,1.95 1.95,1.95 1.08,0 1.96,-0.88 1.96,-1.95 0,-1.08 -0.88,-1.96 -1.96,-1.96 -1.07,0 -1.95,0.88 -1.95,1.96"
           style="fill:#000000;fill-opacity:1;fill-rule:nonzero;stroke:#000000;stroke-width:0.71;stroke-linecap:round;stroke-linejoin:round;stroke-miterlimit:10;stroke-dasharray:none;stroke-opacity:1"
           id="path788" />
        <path
           d="m 191.5,40.03 c 0,1.07 0.88,1.95 1.96,1.95 1.07,0 1.95,-0.88 1.95,-1.95 0,-1.08 -0.88,-1.96 -1.95,-1.96 -1.08,0 -1.96,0.88 -1.96,1.96"
           style="fill:#000000;fill-opacity:1;fill-rule:nonzero;stroke:#000000;stroke-width:0.71;stroke-linecap:round;stroke-linejoin:round;stroke-miterlimit:10;stroke-dasharray:none;stroke-opacity:1"
           id="path790" />
        <path
           d="m 269.59,40.03 c 0,1.07 0.88,1.95 1.95,1.95 1.08,0 1.96,-0.88 1.96,-1.95 0,-1.08 -0.88,-1.96 -1.96,-1.96 -1.07,0 -1.95,0.88 -1.95,1.96"
           style="fill:#000000;fill-opacity:1;fill-rule:nonzero;stroke:#000000;stroke-width:0.71;stroke-linecap:round;stroke-linejoin:round;stroke-miterlimit:10;stroke-dasharray:none;stroke-opacity:1"
           id="path792" />
        <path
           d="m 139.33,40.03 c 0,1.07 0.88,1.95 1.96,1.95 1.07,0 1.95,-0.88 1.95,-1.95 0,-1.08 -0.88,-1.96 -1.95,-1.96 -1.08,0 -1.96,0.88 -1.96,1.96"
           style="fill:#000000;fill-opacity:1;fill-rule:nonzero;stroke:#000000;stroke-width:0.71;stroke-linecap:round;stroke-linejoin:round;stroke-miterlimit:10;stroke-dasharray:none;stroke-opacity:1"
           id="path794" />
        <path
           d="m 106.53,40.03 c 0,1.07 0.87,1.95 1.95,1.95 1.08,0 1.95,-0.88 1.95,-1.95 0,-1.08 -0.87,-1.96 -1.95,-1.96 -1.08,0 -1.95,0.88 -1.95,1.96"
           style="fill:#000000;fill-opacity:1;fill-rule:nonzero;stroke:#000000;stroke-width:0.71;stroke-linecap:round;stroke-linejoin:round;stroke-miterlimit:10;stroke-dasharray:none;stroke-opacity:1"
           id="path796" />
        <path
           d="m 182.36,40.03 c 0,1.07 0.88,1.95 1.96,1.95 1.07,0 1.95,-0.88 1.95,-1.95 0,-1.08 -0.88,-1.96 -1.95,-1.96 -1.08,0 -1.96,0.88 -1.96,1.96"
           style="fill:#000000;fill-opacity:1;fill-rule:nonzero;stroke:#000000;stroke-width:0.71;stroke-linecap:round;stroke-linejoin:round;stroke-miterlimit:10;stroke-dasharray:none;stroke-opacity:1"
           id="path798" />
        <path
           d="m 148.01,40.03 c 0,1.07 0.88,1.95 1.95,1.95 1.08,0 1.96,-0.88 1.96,-1.95 0,-1.08 -0.88,-1.96 -1.96,-1.96 -1.07,0 -1.95,0.88 -1.95,1.96"
           style="fill:#000000;fill-opacity:1;fill-rule:nonzero;stroke:#000000;stroke-width:0.71;stroke-linecap:round;stroke-linejoin:round;stroke-miterlimit:10;stroke-dasharray:none;stroke-opacity:1"
           id="path800" />
        <path
           d="m 179.06,40.03 c 0,1.07 0.88,1.95 1.95,1.95 1.08,0 1.96,-0.88 1.96,-1.95 0,-1.08 -0.88,-1.96 -1.96,-1.96 -1.07,0 -1.95,0.88 -1.95,1.96"
           style="fill:#000000;fill-opacity:1;fill-rule:nonzero;stroke:#000000;stroke-width:0.71;stroke-linecap:round;stroke-linejoin:round;stroke-miterlimit:10;stroke-dasharray:none;stroke-opacity:1"
           id="path802" />
        <path
           d="m 107.96,40.03 c 0,1.07 0.88,1.95 1.96,1.95 1.07,0 1.95,-0.88 1.95,-1.95 0,-1.08 -0.88,-1.96 -1.95,-1.96 -1.08,0 -1.96,0.88 -1.96,1.96"
           style="fill:#000000;fill-opacity:1;fill-rule:nonzero;stroke:#000000;stroke-width:0.71;stroke-linecap:round;stroke-linejoin:round;stroke-miterlimit:10;stroke-dasharray:none;stroke-opacity:1"
           id="path804" />
        <path
           d="m 150.29,202.4 c 0,1.08 0.88,1.96 1.95,1.96 1.08,0 1.96,-0.88 1.96,-1.96 0,-1.07 -0.88,-1.95 -1.96,-1.95 -1.07,0 -1.95,0.88 -1.95,1.95"
           style="fill:#000000;fill-opacity:1;fill-rule:nonzero;stroke:#000000;stroke-width:0.71;stroke-linecap:round;stroke-linejoin:round;stroke-miterlimit:10;stroke-dasharray:none;stroke-opacity:1"
           id="path806" />
        <path
           d="m 240.94,40.03 c 0,1.07 0.88,1.95 1.95,1.95 1.08,0 1.96,-0.88 1.96,-1.95 0,-1.08 -0.88,-1.96 -1.96,-1.96 -1.07,0 -1.95,0.88 -1.95,1.96"
           style="fill:#000000;fill-opacity:1;fill-rule:nonzero;stroke:#000000;stroke-width:0.71;stroke-linecap:round;stroke-linejoin:round;stroke-miterlimit:10;stroke-dasharray:none;stroke-opacity:1"
           id="path808" />
      </g>
    </g>
    <g
       id="g810" />
    <g
       id="g812" />
    <g
       id="g814" />
    <g
       id="g816" />
    <g
       id="g818" />
    <g
       id="g820" />
    <g
       id="g822" />
    <g
       id="g824" />
    <g
       id="g826" />
    <g
       id="g828" />
    <g
       id="g830" />
    <g
       id="g832" />
    <g
       id="g834">
      <path
         d="M 40.98,31.91 V 210.52"
         style="fill:none;stroke:#000000;stroke-width:1.07;stroke-linecap:butt;stroke-linejoin:round;stroke-miterlimit:10;stroke-dasharray:none;stroke-opacity:1"
         id="path836" />
    </g>
    <g
       id="g838" />
    <g
       id="g840" />
    <g
       id="g842">
      <text
         xml:space="preserve"
         transform="matrix(1,0,0,-1,18.54,36.8)"
         style="font-variant:normal;font-weight:normal;font-size:9px;font-family:Helvetica;-inkscape-font-specification:Helvetica;writing-mode:lr-tb;fill:#4d4d4d;fill-opacity:1;fill-rule:nonzero;stroke:none"
         id="text846"><tspan
           x="0 5.0040002 7.506 12.51"
           y="0"
           sodipodi:role="line"
           id="tspan844">0.00</tspan></text>
      <text
         xml:space="preserve"
         transform="matrix(1,0,0,-1,18.54,77.39)"
         style="font-variant:normal;font-weight:normal;font-size:9px;font-family:Helvetica;-inkscape-font-specification:Helvetica;writing-mode:lr-tb;fill:#4d4d4d;fill-opacity:1;fill-rule:nonzero;stroke:none"
         id="text850"><tspan
           x="0 5.0040002 7.506 12.51"
           y="0"
           sodipodi:role="line"
           id="tspan848">0.25</tspan></text>
      <text
         xml:space="preserve"
         transform="matrix(1,0,0,-1,18.54,117.98)"
         style="font-variant:normal;font-weight:normal;font-size:9px;font-family:Helvetica;-inkscape-font-specification:Helvetica;writing-mode:lr-tb;fill:#4d4d4d;fill-opacity:1;fill-rule:nonzero;stroke:none"
         id="text854"><tspan
           x="0 5.0040002 7.506 12.51"
           y="0"
           sodipodi:role="line"
           id="tspan852">0.50</tspan></text>
      <text
         xml:space="preserve"
         transform="matrix(1,0,0,-1,18.54,158.58)"
         style="font-variant:normal;font-weight:normal;font-size:9px;font-family:Helvetica;-inkscape-font-specification:Helvetica;writing-mode:lr-tb;fill:#4d4d4d;fill-opacity:1;fill-rule:nonzero;stroke:none"
         id="text858"><tspan
           x="0 5.0040002 7.506 12.51"
           y="0"
           sodipodi:role="line"
           id="tspan856">0.75</tspan></text>
      <text
         xml:space="preserve"
         transform="matrix(1,0,0,-1,18.54,199.17)"
         style="font-variant:normal;font-weight:normal;font-size:9px;font-family:Helvetica;-inkscape-font-specification:Helvetica;writing-mode:lr-tb;fill:#4d4d4d;fill-opacity:1;fill-rule:nonzero;stroke:none"
         id="text862"><tspan
           x="0 5.0040002 7.506 12.51"
           y="0"
           sodipodi:role="line"
           id="tspan860">1.00</tspan></text>
    </g>
    <g
       id="g864" />
    <g
       id="g866">
      <path
         d="m 38.24,40.03 h 2.74"
         style="fill:none;stroke:#333333;stroke-width:1.07;stroke-linecap:butt;stroke-linejoin:round;stroke-miterlimit:10;stroke-dasharray:none;stroke-opacity:1"
         id="path868" />
      <path
         d="m 38.24,80.62 h 2.74"
         style="fill:none;stroke:#333333;stroke-width:1.07;stroke-linecap:butt;stroke-linejoin:round;stroke-miterlimit:10;stroke-dasharray:none;stroke-opacity:1"
         id="path870" />
      <path
         d="m 38.24,121.22 h 2.74"
         style="fill:none;stroke:#333333;stroke-width:1.07;stroke-linecap:butt;stroke-linejoin:round;stroke-miterlimit:10;stroke-dasharray:none;stroke-opacity:1"
         id="path872" />
      <path
         d="m 38.24,161.81 h 2.74"
         style="fill:none;stroke:#333333;stroke-width:1.07;stroke-linecap:butt;stroke-linejoin:round;stroke-miterlimit:10;stroke-dasharray:none;stroke-opacity:1"
         id="path874" />
      <path
         d="m 38.24,202.4 h 2.74"
         style="fill:none;stroke:#333333;stroke-width:1.07;stroke-linecap:butt;stroke-linejoin:round;stroke-miterlimit:10;stroke-dasharray:none;stroke-opacity:1"
         id="path876" />
    </g>
    <g
       id="g878" />
    <g
       id="g880" />
    <g
       id="g882" />
    <g
       id="g884" />
    <g
       id="g886" />
    <g
       id="g888" />
    <g
       id="g890">
      <path
         d="M 40.98,31.91 H 282.52"
         style="fill:none;stroke:#000000;stroke-width:1.07;stroke-linecap:butt;stroke-linejoin:round;stroke-miterlimit:10;stroke-dasharray:none;stroke-opacity:1"
         id="path892" />
    </g>
    <g
       id="g894" />
    <g
       id="g896" />
    <g
       id="g898">
      <path
         d="m 51.96,29.17 v 2.74"
         style="fill:none;stroke:#333333;stroke-width:1.07;stroke-linecap:butt;stroke-linejoin:round;stroke-miterlimit:10;stroke-dasharray:none;stroke-opacity:1"
         id="path900" />
      <path
         d="m 109.04,29.17 v 2.74"
         style="fill:none;stroke:#333333;stroke-width:1.07;stroke-linecap:butt;stroke-linejoin:round;stroke-miterlimit:10;stroke-dasharray:none;stroke-opacity:1"
         id="path902" />
      <path
         d="m 166.12,29.17 v 2.74"
         style="fill:none;stroke:#333333;stroke-width:1.07;stroke-linecap:butt;stroke-linejoin:round;stroke-miterlimit:10;stroke-dasharray:none;stroke-opacity:1"
         id="path904" />
      <path
         d="m 223.19,29.17 v 2.74"
         style="fill:none;stroke:#333333;stroke-width:1.07;stroke-linecap:butt;stroke-linejoin:round;stroke-miterlimit:10;stroke-dasharray:none;stroke-opacity:1"
         id="path906" />
      <path
         d="m 280.27,29.17 v 2.74"
         style="fill:none;stroke:#333333;stroke-width:1.07;stroke-linecap:butt;stroke-linejoin:round;stroke-miterlimit:10;stroke-dasharray:none;stroke-opacity:1"
         id="path908" />
    </g>
    <g
       id="g910" />
    <g
       id="g912">
      <text
         xml:space="preserve"
         transform="matrix(1,0,0,-1,49.46,20.52)"
         style="font-variant:normal;font-weight:normal;font-size:9px;font-family:Helvetica;-inkscape-font-specification:Helvetica;writing-mode:lr-tb;fill:#4d4d4d;fill-opacity:1;fill-rule:nonzero;stroke:none"
         id="text916"><tspan
           x="0"
           y="0"
           id="tspan914">0</tspan></text>
      <text
         xml:space="preserve"
         transform="matrix(1,0,0,-1,94.03,20.52)"
         style="font-variant:normal;font-weight:normal;font-size:9px;font-family:Helvetica;-inkscape-font-specification:Helvetica;writing-mode:lr-tb;fill:#4d4d4d;fill-opacity:1;fill-rule:nonzero;stroke:none"
         id="text920"><tspan
           x="0 5.0040002 10.008 15.012 20.016001 25.02"
           y="0"
           sodipodi:role="line"
           id="tspan918">500000</tspan></text>
      <text
         xml:space="preserve"
         transform="matrix(1,0,0,-1,148.6,20.52)"
         style="font-variant:normal;font-weight:normal;font-size:9px;font-family:Helvetica;-inkscape-font-specification:Helvetica;writing-mode:lr-tb;fill:#4d4d4d;fill-opacity:1;fill-rule:nonzero;stroke:none"
         id="text924"><tspan
           x="0 5.0040002 10.008 15.012 20.016001 25.02 30.024"
           y="0"
           sodipodi:role="line"
           id="tspan922">1000000</tspan></text>
      <text
         xml:space="preserve"
         transform="matrix(1,0,0,-1,205.68,20.52)"
         style="font-variant:normal;font-weight:normal;font-size:9px;font-family:Helvetica;-inkscape-font-specification:Helvetica;writing-mode:lr-tb;fill:#4d4d4d;fill-opacity:1;fill-rule:nonzero;stroke:none"
         id="text928"><tspan
           x="0 5.0040002 10.008 15.012 20.016001 25.02 30.024"
           y="0"
           sodipodi:role="line"
           id="tspan926">1500000</tspan></text>
      <text
         xml:space="preserve"
         transform="matrix(1,0,0,-1,262.76,20.52)"
         style="font-variant:normal;font-weight:normal;font-size:9px;font-family:Helvetica;-inkscape-font-specification:Helvetica;writing-mode:lr-tb;fill:#4d4d4d;fill-opacity:1;fill-rule:nonzero;stroke:none"
         id="text932"><tspan
           x="0 5.0040002 10.008 15.012 20.016001 25.02 30.024"
           y="0"
           sodipodi:role="line"
           id="tspan930">2000000</tspan></text>
    </g>
    <g
       id="g934" />
    <g
       id="g936" />
    <g
       id="g938" />
    <g
       id="g940" />
    <g
       id="g942" />
    <g
       id="g950" />
    <g
       id="g958" />
    <g
       id="g960" />
    <g
       id="g962" />
    <g
       id="g964" />
    <g
       id="g966" />
    <g
       id="g968" />
    <g
       id="g970" />
    <g
       id="g972" />
    <g
       id="g974" />
    <g
       id="g976" />
    <g
       id="g978" />
    <g
       id="g980" />
  </g>
</svg>
